<svg width="351" height="22" viewBox="0 0 351 22" fill="none" xmlns="http://www.w3.org/2000/svg">
<path d="M0.31 17.0771V1.67715H6.8C8.44267 1.67715 9.88733 1.99981 11.134 2.64515C12.3953 3.29048 13.3707 4.19248 14.06 5.35115C14.764 6.50981 15.116 7.85181 15.116 9.37715C15.116 10.9025 14.764 12.2445 14.06 13.4031C13.3707 14.5618 12.3953 15.4638 11.134 16.1091C9.88733 16.7545 8.44267 17.0771 6.8 17.0771H0.31ZM2.51 15.1631H6.668C7.944 15.1631 9.044 14.9211 9.968 14.4371C10.9067 13.9531 11.6327 13.2785 12.146 12.4131C12.6593 11.5331 12.916 10.5211 12.916 9.37715C12.916 8.21848 12.6593 7.20648 12.146 6.34115C11.6327 5.47581 10.9067 4.80115 9.968 4.31715C9.044 3.83315 7.944 3.59115 6.668 3.59115H2.51V15.1631ZM21.4118 17.2091C20.2384 17.2091 19.1971 16.9525 18.2878 16.4391C17.3784 15.9258 16.6598 15.2218 16.1318 14.3271C15.6038 13.4178 15.3398 12.3911 15.3398 11.2471C15.3398 10.0885 15.6038 9.06181 16.1318 8.16715C16.6598 7.27248 17.3784 6.57581 18.2878 6.07715C19.1971 5.56381 20.2384 5.30715 21.4118 5.30715C22.5704 5.30715 23.6044 5.56381 24.5138 6.07715C25.4378 6.57581 26.1564 7.27248 26.6698 8.16715C27.1978 9.04715 27.4618 10.0738 27.4618 11.2471C27.4618 12.4058 27.1978 13.4325 26.6698 14.3271C26.1564 15.2218 25.4378 15.9258 24.5138 16.4391C23.6044 16.9525 22.5704 17.2091 21.4118 17.2091ZM21.4118 15.3611C22.1598 15.3611 22.8271 15.1925 23.4138 14.8551C24.0151 14.5178 24.4844 14.0411 24.8218 13.4251C25.1591 12.7945 25.3278 12.0685 25.3278 11.2471C25.3278 10.4111 25.1591 9.69248 24.8218 9.09115C24.4844 8.47515 24.0151 7.99848 23.4138 7.66115C22.8271 7.32381 22.1598 7.15515 21.4118 7.15515C20.6638 7.15515 19.9964 7.32381 19.4098 7.66115C18.8231 7.99848 18.3538 8.47515 18.0018 9.09115C17.6498 9.69248 17.4738 10.4111 17.4738 11.2471C17.4738 12.0685 17.6498 12.7945 18.0018 13.4251C18.3538 14.0411 18.8231 14.5178 19.4098 14.8551C19.9964 15.1925 20.6638 15.3611 21.4118 15.3611ZM30.7644 17.0771L26.4304 5.41715H28.4324L32.2824 15.9771H31.3364L35.3404 5.41715H37.1224L41.0384 15.9771H40.1144L44.0524 5.41715H45.9444L41.5884 17.0771H39.5644L35.8904 7.44115H36.5064L32.7884 17.0771H30.7644ZM52.5535 5.30715C53.5068 5.30715 54.3428 5.49048 55.0615 5.85715C55.7948 6.22381 56.3668 6.78115 56.7775 7.52915C57.1881 8.27715 57.3935 9.22315 57.3935 10.3671V17.0771H55.2815V10.6091C55.2815 9.47981 55.0028 8.62915 54.4455 8.05715C53.9028 7.48515 53.1328 7.19915 52.1355 7.19915C51.3875 7.19915 50.7348 7.34581 50.1775 7.63915C49.6201 7.93248 49.1875 8.36515 48.8795 8.93715C48.5861 9.50915 48.4395 10.2205 48.4395 11.0711V17.0771H46.3275V5.41715H48.3515V8.56315L48.0215 7.72715C48.4028 6.96448 48.9895 6.37048 49.7815 5.94515C50.5735 5.51981 51.4975 5.30715 52.5535 5.30715ZM59.5421 17.0771V0.753147H61.6541V17.0771H59.5421ZM68.9206 17.2091C67.7473 17.2091 66.7059 16.9525 65.7966 16.4391C64.8873 15.9258 64.1686 15.2218 63.6406 14.3271C63.1126 13.4178 62.8486 12.3911 62.8486 11.2471C62.8486 10.0885 63.1126 9.06181 63.6406 8.16715C64.1686 7.27248 64.8873 6.57581 65.7966 6.07715C66.7059 5.56381 67.7473 5.30715 68.9206 5.30715C70.0793 5.30715 71.1133 5.56381 72.0226 6.07715C72.9466 6.57581 73.6653 7.27248 74.1786 8.16715C74.7066 9.04715 74.9706 10.0738 74.9706 11.2471C74.9706 12.4058 74.7066 13.4325 74.1786 14.3271C73.6653 15.2218 72.9466 15.9258 72.0226 16.4391C71.1133 16.9525 70.0793 17.2091 68.9206 17.2091ZM68.9206 15.3611C69.6686 15.3611 70.3359 15.1925 70.9226 14.8551C71.5239 14.5178 71.9933 14.0411 72.3306 13.4251C72.6679 12.7945 72.8366 12.0685 72.8366 11.2471C72.8366 10.4111 72.6679 9.69248 72.3306 9.09115C71.9933 8.47515 71.5239 7.99848 70.9226 7.66115C70.3359 7.32381 69.6686 7.15515 68.9206 7.15515C68.1726 7.15515 67.5053 7.32381 66.9186 7.66115C66.3319 7.99848 65.8626 8.47515 65.5106 9.09115C65.1586 9.69248 64.9826 10.4111 64.9826 11.2471C64.9826 12.0685 65.1586 12.7945 65.5106 13.4251C65.8626 14.0411 66.3319 14.5178 66.9186 14.8551C67.5053 15.1925 68.1726 15.3611 68.9206 15.3611ZM83.262 17.0771V14.6131L83.152 14.1511V9.94915C83.152 9.05448 82.888 8.36515 82.36 7.88115C81.8467 7.38248 81.0694 7.13315 80.028 7.13315C79.3387 7.13315 78.664 7.25048 78.004 7.48515C77.344 7.70515 76.7867 8.00581 76.332 8.38715L75.452 6.80315C76.0534 6.31915 76.772 5.95248 77.608 5.70315C78.4587 5.43915 79.346 5.30715 80.27 5.30715C81.8687 5.30715 83.1007 5.69581 83.966 6.47315C84.8314 7.25048 85.264 8.43848 85.264 10.0371V17.0771H83.262ZM79.434 17.2091C78.5687 17.2091 77.806 17.0625 77.146 16.7691C76.5007 16.4758 76.002 16.0725 75.65 15.5591C75.298 15.0311 75.122 14.4371 75.122 13.7771C75.122 13.1465 75.2687 12.5745 75.562 12.0611C75.87 11.5478 76.3614 11.1371 77.036 10.8291C77.7254 10.5211 78.6494 10.3671 79.808 10.3671H83.504V11.8851H79.896C78.84 11.8851 78.1287 12.0611 77.762 12.4131C77.3954 12.7651 77.212 13.1905 77.212 13.6891C77.212 14.2611 77.4394 14.7231 77.894 15.0751C78.3487 15.4125 78.9794 15.5811 79.786 15.5811C80.578 15.5811 81.2674 15.4051 81.854 15.0531C82.4554 14.7011 82.888 14.1878 83.152 13.5131L83.57 14.9651C83.2914 15.6545 82.8 16.2045 82.096 16.6151C81.392 17.0111 80.5047 17.2091 79.434 17.2091ZM92.2305 17.2091C91.1011 17.2091 90.0891 16.9598 89.1945 16.4611C88.3145 15.9625 87.6178 15.2658 87.1045 14.3711C86.5911 13.4765 86.3345 12.4351 86.3345 11.2471C86.3345 10.0591 86.5911 9.02515 87.1045 8.14515C87.6178 7.25048 88.3145 6.55381 89.1945 6.05515C90.0891 5.55648 91.1011 5.30715 92.2305 5.30715C93.2131 5.30715 94.1005 5.52715 94.8925 5.96715C95.6845 6.40715 96.3151 7.06715 96.7845 7.94715C97.2685 8.82715 97.5105 9.92715 97.5105 11.2471C97.5105 12.5671 97.2758 13.6671 96.8065 14.5471C96.3518 15.4271 95.7285 16.0945 94.9365 16.5491C94.1445 16.9891 93.2425 17.2091 92.2305 17.2091ZM92.4065 15.3611C93.1398 15.3611 93.7998 15.1925 94.3865 14.8551C94.9878 14.5178 95.4571 14.0411 95.7945 13.4251C96.1465 12.7945 96.3225 12.0685 96.3225 11.2471C96.3225 10.4111 96.1465 9.69248 95.7945 9.09115C95.4571 8.47515 94.9878 7.99848 94.3865 7.66115C93.7998 7.32381 93.1398 7.15515 92.4065 7.15515C91.6585 7.15515 90.9911 7.32381 90.4045 7.66115C89.8178 7.99848 89.3485 8.47515 88.9965 9.09115C88.6445 9.69248 88.4685 10.4111 88.4685 11.2471C88.4685 12.0685 88.6445 12.7945 88.9965 13.4251C89.3485 14.0411 89.8178 14.5178 90.4045 14.8551C90.9911 15.1925 91.6585 15.3611 92.4065 15.3611ZM96.3885 17.0771V13.9311L96.5205 11.2251L96.3005 8.51915V0.753147H98.4125V17.0771H96.3885ZM108.801 17.2091C107.627 17.2091 106.718 16.8938 106.073 16.2631C105.427 15.6325 105.105 14.7305 105.105 13.5571V2.86515H107.217V13.4691C107.217 14.0998 107.371 14.5838 107.679 14.9211C108.001 15.2585 108.456 15.4271 109.043 15.4271C109.703 15.4271 110.253 15.2438 110.693 14.8771L111.353 16.3951C111.03 16.6738 110.641 16.8791 110.187 17.0111C109.747 17.1431 109.285 17.2091 108.801 17.2091ZM103.125 7.15515V5.41715H110.561V7.15515H103.125ZM118.372 5.30715C119.325 5.30715 120.161 5.49048 120.88 5.85715C121.613 6.22381 122.185 6.78115 122.596 7.52915C123.007 8.27715 123.212 9.22315 123.212 10.3671V17.0771H121.1V10.6091C121.1 9.47981 120.821 8.62915 120.264 8.05715C119.721 7.48515 118.951 7.19915 117.954 7.19915C117.206 7.19915 116.553 7.34581 115.996 7.63915C115.439 7.93248 115.006 8.36515 114.698 8.93715C114.405 9.50915 114.258 10.2205 114.258 11.0711V17.0771H112.146V0.753147H114.258V8.56315L113.84 7.72715C114.221 6.96448 114.808 6.37048 115.6 5.94515C116.392 5.51981 117.316 5.30715 118.372 5.30715ZM130.553 17.2091C129.306 17.2091 128.206 16.9525 127.253 16.4391C126.314 15.9258 125.581 15.2218 125.053 14.3271C124.539 13.4325 124.283 12.4058 124.283 11.2471C124.283 10.0885 124.532 9.06181 125.031 8.16715C125.544 7.27248 126.241 6.57581 127.121 6.07715C128.015 5.56381 129.02 5.30715 130.135 5.30715C131.264 5.30715 132.261 5.55648 133.127 6.05515C133.992 6.55381 134.667 7.25781 135.151 8.16715C135.649 9.06181 135.899 10.1105 135.899 11.3131C135.899 11.4011 135.891 11.5038 135.877 11.6211C135.877 11.7385 135.869 11.8485 135.855 11.9511H125.933V10.4331H134.755L133.897 10.9611C133.911 10.2131 133.757 9.54581 133.435 8.95915C133.112 8.37248 132.665 7.91781 132.093 7.59515C131.535 7.25781 130.883 7.08915 130.135 7.08915C129.401 7.08915 128.749 7.25781 128.177 7.59515C127.605 7.91781 127.157 8.37981 126.835 8.98115C126.512 9.56781 126.351 10.2425 126.351 11.0051V11.3571C126.351 12.1345 126.527 12.8311 126.879 13.4471C127.245 14.0485 127.751 14.5178 128.397 14.8551C129.042 15.1925 129.783 15.3611 130.619 15.3611C131.308 15.3611 131.931 15.2438 132.489 15.0091C133.061 14.7745 133.559 14.4225 133.985 13.9531L135.151 15.3171C134.623 15.9331 133.963 16.4025 133.171 16.7251C132.393 17.0478 131.521 17.2091 130.553 17.2091ZM309.181 17.0771L316.155 1.67715H318.333L325.329 17.0771H323.019L316.793 2.90915H317.673L311.447 17.0771H309.181ZM312.151 13.2271L312.745 11.4671H321.413L322.051 13.2271H312.151ZM331.74 17.2091C330.772 17.2091 329.885 16.9891 329.078 16.5491C328.286 16.0945 327.648 15.4271 327.164 14.5471C326.695 13.6671 326.46 12.5671 326.46 11.2471C326.46 9.92715 326.688 8.82715 327.142 7.94715C327.612 7.06715 328.242 6.40715 329.034 5.96715C329.841 5.52715 330.743 5.30715 331.74 5.30715C332.884 5.30715 333.896 5.55648 334.776 6.05515C335.656 6.55381 336.353 7.25048 336.866 8.14515C337.38 9.02515 337.636 10.0591 337.636 11.2471C337.636 12.4351 337.38 13.4765 336.866 14.3711C336.353 15.2658 335.656 15.9625 334.776 16.4611C333.896 16.9598 332.884 17.2091 331.74 17.2091ZM325.558 21.3451V5.41715H327.582V8.56315L327.45 11.2691L327.67 13.9751V21.3451H325.558ZM331.564 15.3611C332.312 15.3611 332.98 15.1925 333.566 14.8551C334.168 14.5178 334.637 14.0411 334.974 13.4251C335.326 12.7945 335.502 12.0685 335.502 11.2471C335.502 10.4111 335.326 9.69248 334.974 9.09115C334.637 8.47515 334.168 7.99848 333.566 7.66115C332.98 7.32381 332.312 7.15515 331.564 7.15515C330.831 7.15515 330.164 7.32381 329.562 7.66115C328.976 7.99848 328.506 8.47515 328.154 9.09115C327.817 9.69248 327.648 10.4111 327.648 11.2471C327.648 12.0685 327.817 12.7945 328.154 13.4251C328.506 14.0411 328.976 14.5178 329.562 14.8551C330.164 15.1925 330.831 15.3611 331.564 15.3611ZM344.976 17.2091C344.008 17.2091 343.121 16.9891 342.314 16.5491C341.522 16.0945 340.884 15.4271 340.4 14.5471C339.931 13.6671 339.696 12.5671 339.696 11.2471C339.696 9.92715 339.924 8.82715 340.378 7.94715C340.848 7.06715 341.478 6.40715 342.27 5.96715C343.077 5.52715 343.979 5.30715 344.976 5.30715C346.12 5.30715 347.132 5.55648 348.012 6.05515C348.892 6.55381 349.589 7.25048 350.102 8.14515C350.616 9.02515 350.872 10.0591 350.872 11.2471C350.872 12.4351 350.616 13.4765 350.102 14.3711C349.589 15.2658 348.892 15.9625 348.012 16.4611C347.132 16.9598 346.12 17.2091 344.976 17.2091ZM338.794 21.3451V5.41715H340.818V8.56315L340.686 11.2691L340.906 13.9751V21.3451H338.794ZM344.8 15.3611C345.548 15.3611 346.216 15.1925 346.802 14.8551C347.404 14.5178 347.873 14.0411 348.21 13.4251C348.562 12.7945 348.738 12.0685 348.738 11.2471C348.738 10.4111 348.562 9.69248 348.21 9.09115C347.873 8.47515 347.404 7.99848 346.802 7.66115C346.216 7.32381 345.548 7.15515 344.8 7.15515C344.067 7.15515 343.4 7.32381 342.798 7.66115C342.212 7.99848 341.742 8.47515 341.39 9.09115C341.053 9.69248 340.884 10.4111 340.884 11.2471C340.884 12.0685 341.053 12.7945 341.39 13.4251C341.742 14.0411 342.212 14.5178 342.798 14.8551C343.4 15.1925 344.067 15.3611 344.8 15.3611Z" fill="black"/>
<path d="M151.604 1.67715H155.168V17.0771H151.604V1.67715ZM144.608 17.0771H141.044V1.67715H144.608V17.0771ZM151.868 10.7631H144.344V7.74915H151.868V10.7631ZM161.803 17.2531C160.821 17.2531 159.941 17.0625 159.163 16.6811C158.401 16.2998 157.807 15.7205 157.381 14.9431C156.956 14.1511 156.743 13.1465 156.743 11.9291V5.24115H160.175V11.4231C160.175 12.4058 160.381 13.1318 160.791 13.6011C161.217 14.0558 161.811 14.2831 162.573 14.2831C163.101 14.2831 163.571 14.1731 163.981 13.9531C164.392 13.7185 164.715 13.3665 164.949 12.8971C165.184 12.4131 165.301 11.8118 165.301 11.0931V5.24115H168.733V17.0771H165.477V13.8211L166.071 14.7671C165.675 15.5885 165.089 16.2118 164.311 16.6371C163.549 17.0478 162.713 17.2531 161.803 17.2531ZM185.311 5.06515C186.249 5.06515 187.078 5.25581 187.797 5.63715C188.53 6.00381 189.102 6.57581 189.513 7.35315C189.938 8.11581 190.151 9.09848 190.151 10.3011V17.0771H186.719V10.8291C186.719 9.87581 186.521 9.17181 186.125 8.71715C185.729 8.26248 185.171 8.03515 184.453 8.03515C183.954 8.03515 183.507 8.15248 183.111 8.38715C182.715 8.60715 182.407 8.94448 182.187 9.39915C181.967 9.85381 181.857 10.4331 181.857 11.1371V17.0771H178.425V10.8291C178.425 9.87581 178.227 9.17181 177.831 8.71715C177.449 8.26248 176.899 8.03515 176.181 8.03515C175.682 8.03515 175.235 8.15248 174.839 8.38715C174.443 8.60715 174.135 8.94448 173.915 9.39915C173.695 9.85381 173.585 10.4331 173.585 11.1371V17.0771H170.153V5.24115H173.431V8.47515L172.815 7.52915C173.225 6.72248 173.805 6.11381 174.553 5.70315C175.315 5.27781 176.181 5.06515 177.149 5.06515C178.234 5.06515 179.18 5.34381 179.987 5.90115C180.808 6.44381 181.351 7.27981 181.615 8.40915L180.405 8.07915C180.801 7.15515 181.431 6.42181 182.297 5.87915C183.177 5.33648 184.181 5.06515 185.311 5.06515ZM198.727 17.0771V14.7671L198.507 14.2611V10.1251C198.507 9.39181 198.28 8.81981 197.825 8.40915C197.385 7.99848 196.703 7.79315 195.779 7.79315C195.148 7.79315 194.525 7.89581 193.909 8.10115C193.308 8.29181 192.794 8.55581 192.369 8.89315L191.137 6.49515C191.782 6.04048 192.56 5.68848 193.469 5.43915C194.378 5.18981 195.302 5.06515 196.241 5.06515C198.045 5.06515 199.446 5.49048 200.443 6.34115C201.44 7.19181 201.939 8.51915 201.939 10.3231V17.0771H198.727ZM195.119 17.2531C194.195 17.2531 193.403 17.0991 192.743 16.7911C192.083 16.4685 191.577 16.0358 191.225 15.4931C190.873 14.9505 190.697 14.3418 190.697 13.6671C190.697 12.9631 190.866 12.3471 191.203 11.8191C191.555 11.2911 192.105 10.8805 192.853 10.5871C193.601 10.2791 194.576 10.1251 195.779 10.1251H198.925V12.1271H196.153C195.346 12.1271 194.789 12.2591 194.481 12.5231C194.188 12.7871 194.041 13.1171 194.041 13.5131C194.041 13.9531 194.21 14.3051 194.547 14.5691C194.899 14.8185 195.376 14.9431 195.977 14.9431C196.549 14.9431 197.062 14.8111 197.517 14.5471C197.972 14.2685 198.302 13.8651 198.507 13.3371L199.035 14.9211C198.786 15.6838 198.331 16.2631 197.671 16.6591C197.011 17.0551 196.16 17.2531 195.119 17.2531ZM210.479 5.06515C211.418 5.06515 212.254 5.25581 212.987 5.63715C213.735 6.00381 214.322 6.57581 214.747 7.35315C215.172 8.11581 215.385 9.09848 215.385 10.3011V17.0771H211.953V10.8291C211.953 9.87581 211.74 9.17181 211.315 8.71715C210.904 8.26248 210.318 8.03515 209.555 8.03515C209.012 8.03515 208.521 8.15248 208.081 8.38715C207.656 8.60715 207.318 8.95181 207.069 9.42115C206.834 9.89048 206.717 10.4918 206.717 11.2251V17.0771H203.285V5.24115H206.563V8.51915L205.947 7.52915C206.372 6.73715 206.981 6.12848 207.773 5.70315C208.565 5.27781 209.467 5.06515 210.479 5.06515ZM216.978 17.0771V1.67715H219.926L226.482 12.5451H224.92L231.366 1.67715H234.292L234.336 17.0771H230.992L230.97 6.80315H231.586L226.438 15.4491H224.832L219.574 6.80315H220.322V17.0771H216.978ZM243.248 17.0771V14.7671L243.028 14.2611V10.1251C243.028 9.39181 242.8 8.81981 242.346 8.40915C241.906 7.99848 241.224 7.79315 240.3 7.79315C239.669 7.79315 239.046 7.89581 238.43 8.10115C237.828 8.29181 237.315 8.55581 236.89 8.89315L235.658 6.49515C236.303 6.04048 237.08 5.68848 237.99 5.43915C238.899 5.18981 239.823 5.06515 240.762 5.06515C242.566 5.06515 243.966 5.49048 244.964 6.34115C245.961 7.19181 246.46 8.51915 246.46 10.3231V17.0771H243.248ZM239.64 17.2531C238.716 17.2531 237.924 17.0991 237.264 16.7911C236.604 16.4685 236.098 16.0358 235.746 15.4931C235.394 14.9505 235.218 14.3418 235.218 13.6671C235.218 12.9631 235.386 12.3471 235.724 11.8191C236.076 11.2911 236.626 10.8805 237.374 10.5871C238.122 10.2791 239.097 10.1251 240.3 10.1251H243.446V12.1271H240.674C239.867 12.1271 239.31 12.2591 239.002 12.5231C238.708 12.7871 238.562 13.1171 238.562 13.5131C238.562 13.9531 238.73 14.3051 239.068 14.5691C239.42 14.8185 239.896 14.9431 240.498 14.9431C241.07 14.9431 241.583 14.8111 242.038 14.5471C242.492 14.2685 242.822 13.8651 243.028 13.3371L243.556 14.9211C243.306 15.6838 242.852 16.2631 242.192 16.6591C241.532 17.0551 240.681 17.2531 239.64 17.2531ZM255 5.06515C255.939 5.06515 256.775 5.25581 257.508 5.63715C258.256 6.00381 258.843 6.57581 259.268 7.35315C259.693 8.11581 259.906 9.09848 259.906 10.3011V17.0771H256.474V10.8291C256.474 9.87581 256.261 9.17181 255.836 8.71715C255.425 8.26248 254.839 8.03515 254.076 8.03515C253.533 8.03515 253.042 8.15248 252.602 8.38715C252.177 8.60715 251.839 8.95181 251.59 9.42115C251.355 9.89048 251.238 10.4918 251.238 11.2251V17.0771H247.806V5.24115H251.084V8.51915L250.468 7.52915C250.893 6.73715 251.502 6.12848 252.294 5.70315C253.086 5.27781 253.988 5.06515 255 5.06515ZM268.517 17.0771V14.7671L268.297 14.2611V10.1251C268.297 9.39181 268.069 8.81981 267.615 8.40915C267.175 7.99848 266.493 7.79315 265.569 7.79315C264.938 7.79315 264.315 7.89581 263.699 8.10115C263.097 8.29181 262.584 8.55581 262.159 8.89315L260.927 6.49515C261.572 6.04048 262.349 5.68848 263.259 5.43915C264.168 5.18981 265.092 5.06515 266.031 5.06515C267.835 5.06515 269.235 5.49048 270.233 6.34115C271.23 7.19181 271.729 8.51915 271.729 10.3231V17.0771H268.517ZM264.909 17.2531C263.985 17.2531 263.193 17.0991 262.533 16.7911C261.873 16.4685 261.367 16.0358 261.015 15.4931C260.663 14.9505 260.487 14.3418 260.487 13.6671C260.487 12.9631 260.655 12.3471 260.993 11.8191C261.345 11.2911 261.895 10.8805 262.643 10.5871C263.391 10.2791 264.366 10.1251 265.569 10.1251H268.715V12.1271H265.943C265.136 12.1271 264.579 12.2591 264.271 12.5231C263.977 12.7871 263.831 13.1171 263.831 13.5131C263.831 13.9531 263.999 14.3051 264.337 14.5691C264.689 14.8185 265.165 14.9431 265.767 14.9431C266.339 14.9431 266.852 14.8111 267.307 14.5471C267.761 14.2685 268.091 13.8651 268.297 13.3371L268.825 14.9211C268.575 15.6838 268.121 16.2631 267.461 16.6591C266.801 17.0551 265.95 17.2531 264.909 17.2531ZM278.727 21.5211C277.612 21.5211 276.534 21.3818 275.493 21.1031C274.466 20.8391 273.608 20.4358 272.919 19.8931L274.283 17.4291C274.782 17.8398 275.412 18.1625 276.175 18.3971C276.952 18.6465 277.715 18.7711 278.463 18.7711C279.68 18.7711 280.56 18.4998 281.103 17.9571C281.66 17.4145 281.939 16.6078 281.939 15.5371V13.7551L282.159 10.7851L282.115 7.79315V5.24115H285.371V15.0971C285.371 17.2971 284.799 18.9178 283.655 19.9591C282.511 21.0005 280.868 21.5211 278.727 21.5211ZM278.199 16.5051C277.099 16.5051 276.102 16.2705 275.207 15.8011C274.327 15.3171 273.616 14.6498 273.073 13.7991C272.545 12.9338 272.281 11.9291 272.281 10.7851C272.281 9.62648 272.545 8.62181 273.073 7.77115C273.616 6.90581 274.327 6.23848 275.207 5.76915C276.102 5.29982 277.099 5.06515 278.199 5.06515C279.196 5.06515 280.076 5.27048 280.839 5.68115C281.602 6.07715 282.196 6.70048 282.621 7.55115C283.046 8.38715 283.259 9.46515 283.259 10.7851C283.259 12.0905 283.046 13.1685 282.621 14.0191C282.196 14.8551 281.602 15.4785 280.839 15.8891C280.076 16.2998 279.196 16.5051 278.199 16.5051ZM278.881 13.6891C279.482 13.6891 280.018 13.5718 280.487 13.3371C280.956 13.0878 281.323 12.7431 281.587 12.3031C281.851 11.8631 281.983 11.3571 281.983 10.7851C281.983 10.1985 281.851 9.69248 281.587 9.26715C281.323 8.82715 280.956 8.48981 280.487 8.25515C280.018 8.00581 279.482 7.88115 278.881 7.88115C278.28 7.88115 277.744 8.00581 277.275 8.25515C276.806 8.48981 276.432 8.82715 276.153 9.26715C275.889 9.69248 275.757 10.1985 275.757 10.7851C275.757 11.3571 275.889 11.8631 276.153 12.3031C276.432 12.7431 276.806 13.0878 277.275 13.3371C277.744 13.5718 278.28 13.6891 278.881 13.6891ZM292.679 17.2531C291.33 17.2531 290.142 16.9891 289.115 16.4611C288.103 15.9331 287.318 15.2145 286.761 14.3051C286.204 13.3811 285.925 12.3325 285.925 11.1591C285.925 9.97115 286.196 8.92248 286.739 8.01315C287.296 7.08915 288.052 6.37048 289.005 5.85715C289.958 5.32915 291.036 5.06515 292.239 5.06515C293.398 5.06515 294.439 5.31448 295.363 5.81315C296.302 6.29715 297.042 7.00115 297.585 7.92515C298.128 8.83448 298.399 9.92715 298.399 11.2031C298.399 11.3351 298.392 11.4891 298.377 11.6651C298.362 11.8265 298.348 11.9805 298.333 12.1271H288.719V10.1251H296.529L295.209 10.7191C295.209 10.1031 295.084 9.56781 294.835 9.11315C294.586 8.65848 294.241 8.30648 293.801 8.05715C293.361 7.79315 292.848 7.66115 292.261 7.66115C291.674 7.66115 291.154 7.79315 290.699 8.05715C290.259 8.30648 289.914 8.66581 289.665 9.13515C289.416 9.58981 289.291 10.1325 289.291 10.7631V11.2911C289.291 11.9365 289.43 12.5085 289.709 13.0071C290.002 13.4911 290.406 13.8651 290.919 14.1291C291.447 14.3785 292.063 14.5031 292.767 14.5031C293.398 14.5031 293.948 14.4078 294.417 14.2171C294.901 14.0265 295.341 13.7405 295.737 13.3591L297.563 15.3391C297.02 15.9551 296.338 16.4318 295.517 16.7691C294.696 17.0918 293.75 17.2531 292.679 17.2531ZM298.924 17.0771V5.24115H302.202V8.58515L301.74 7.61715C302.092 6.78115 302.657 6.15048 303.434 5.72515C304.211 5.28515 305.157 5.06515 306.272 5.06515V8.23315C306.125 8.21848 305.993 8.21115 305.876 8.21115C305.759 8.19648 305.634 8.18915 305.502 8.18915C304.563 8.18915 303.801 8.46048 303.214 9.00315C302.642 9.53115 302.356 10.3598 302.356 11.4891V17.0771H298.924Z" fill="url(#paint0_linear_2678_248)"/>
<defs>
<linearGradient id="paint0_linear_2678_248" x1="149.89" y1="11.8128" x2="165.313" y2="39.8248" gradientUnits="userSpaceOnUse">
<stop stop-color="#6DAC54"/>
<stop offset="1" stop-color="#3B966B"/>
</linearGradient>
</defs>
</svg>
