<svg width="50" height="50" viewBox="0 0 50 50" fill="none" xmlns="http://www.w3.org/2000/svg">
<g clip-path="url(#clip0_2681_262)">
<path d="M27.0893 27.8169C26.4673 28.2316 25.7449 28.4508 25 28.4508C24.2552 28.4508 23.5327 28.2316 22.9107 27.8169L12.6665 20.9872C12.6096 20.9493 12.5542 20.9098 12.5 20.8692V32.0604C12.5 33.3436 13.5413 34.3619 14.8014 34.3619H35.1985C36.4816 34.3619 37.5 33.3206 37.5 32.0604V20.8691C37.4456 20.9099 37.3901 20.9495 37.3332 20.9874L27.0893 27.8169Z" fill="#F26524"/>
<path d="M13.479 19.7684L23.7233 26.5982C24.1111 26.8567 24.5555 26.986 25 26.986C25.4444 26.986 25.8889 26.8567 26.2767 26.5982L36.521 19.7684C37.134 19.36 37.5 18.6764 37.5 17.9386C37.5 16.67 36.4679 15.6379 35.1994 15.6379H14.8006C13.5321 15.638 12.5 16.67 12.5 17.9398C12.5 18.6764 12.866 19.36 13.479 19.7684Z" fill="#F26524"/>
</g>
<circle cx="25" cy="25" r="23.75" stroke="#009480" stroke-width="2.5"/>
<defs>
<clipPath id="clip0_2681_262">
<rect width="25" height="25" fill="white" transform="translate(12.5 12.5)"/>
</clipPath>
</defs>
</svg>
