<svg width="52" height="52" viewBox="0 0 52 52" fill="none" xmlns="http://www.w3.org/2000/svg">
<path d="M25.5429 51.8845C39.6261 51.8845 51.0429 40.4678 51.0429 26.3845C51.0429 12.3013 39.6261 0.884521 25.5429 0.884521C11.4596 0.884521 0.0428467 12.3013 0.0428467 26.3845C0.0428467 40.4678 11.4596 51.8845 25.5429 51.8845Z" fill="#009480"/>
<g clip-path="url(#clip0_2677_223)">
<path d="M38.2249 26.3848C38.2249 19.3431 32.5165 13.6348 25.4749 13.6348C18.4332 13.6348 12.7249 19.3431 12.7249 26.3848C12.7249 32.7486 17.3873 38.0234 23.4827 38.9799V30.0703H20.2454V26.3848H23.4827V23.5758C23.4827 20.3803 25.3862 18.6152 28.2985 18.6152C29.6931 18.6152 31.1526 18.8643 31.1526 18.8643V22.002H29.5449C27.9611 22.002 27.467 22.9849 27.467 23.9941V26.3848H31.0032L30.4379 30.0703H27.467V38.9799C33.5624 38.0234 38.2249 32.7486 38.2249 26.3848Z" fill="white"/>
</g>
<defs>
<clipPath id="clip0_2677_223">
<rect width="25.5" height="25.5" fill="white" transform="translate(12.7249 13.6348)"/>
</clipPath>
</defs>
</svg>
