<svg width="354" height="134" viewBox="0 0 354 134" fill="none" xmlns="http://www.w3.org/2000/svg">
<path fill-rule="evenodd" clip-rule="evenodd" d="M41.4796 60.3676H30.0543V35.1686C30.0734 33.813 29.8055 32.467 29.2653 31.2054C28.8182 30.1451 28.1418 29.179 27.2769 28.3652C26.4786 27.6277 25.5183 27.0547 24.4601 26.6843C23.3724 26.3226 22.2241 26.1387 21.0672 26.1409C19.3656 26.1336 17.6737 26.3782 16.0569 26.8655C14.429 27.3639 12.8756 28.0479 11.4331 28.9014V60.3676H0V0H11.4173L11.4962 20.678C13.2425 19.4419 15.2335 18.529 17.3588 17.99C19.4443 17.4225 21.6064 17.1273 23.7815 17.1133C26.0777 17.1012 28.3585 17.4592 30.5199 18.1711C32.621 18.865 34.5403 19.956 36.1536 21.3736C37.8532 22.8957 39.1794 24.7335 40.0435 26.764C41.0499 29.2167 41.5348 31.8237 41.4717 34.444L41.4796 60.3676Z" fill="#009480"/>
<path fill-rule="evenodd" clip-rule="evenodd" d="M90.8099 60.373H79.3926V57.1706C78.6249 57.8697 77.7568 58.4694 76.8125 58.9529C75.8222 59.4669 74.7878 59.9055 73.7194 60.2643C72.636 60.6247 71.5224 60.9033 70.3897 61.0975C69.3315 61.2871 68.2565 61.3866 67.1784 61.3946C64.8987 61.4019 62.6341 61.0566 60.4794 60.373C58.3687 59.7096 56.4351 58.6428 54.8063 57.243C53.0702 55.7102 51.7233 53.845 50.8611 51.7801C49.82 49.2344 49.3217 46.5287 49.3935 43.8103V18.2852H60.8345V43.3321C60.8156 44.6899 61.0835 46.0383 61.6235 47.3025C62.0697 48.3633 62.7462 49.3296 63.6119 50.1426C64.4138 50.8884 65.3869 51.4602 66.4603 51.8163C67.5399 52.1779 68.6804 52.3618 69.8295 52.3597C73.4067 52.404 76.858 51.1488 79.4321 48.8675V18.2852H90.8494L90.8099 60.373Z" fill="#009480"/>
<path fill-rule="evenodd" clip-rule="evenodd" d="M168.196 60.3713H156.779V35.2447C156.779 32.2886 155.99 30.045 154.412 28.5138C152.949 27.0213 150.854 26.1837 148.668 26.217C145.16 26.1698 141.762 27.3393 139.152 29.4919C139.648 31.3749 139.887 33.3074 139.862 35.2447V60.3713H128.468V35.2447C128.468 32.2886 127.679 30.045 126.101 28.5138C124.661 27.0315 122.592 26.194 120.428 26.217C118.849 26.1874 117.282 26.4742 115.836 27.0575C114.325 27.7382 112.941 28.6331 111.733 29.7093V60.3713H100.316V18.2835H111.733V21.4134C113.202 20.1267 114.909 19.0912 116.775 18.3559C118.635 17.5927 120.648 17.1954 122.685 17.1894C125.002 17.2095 127.288 17.6812 129.392 18.5733C131.658 19.4986 133.677 20.8658 135.309 22.5799C139.413 19 144.895 17.0613 150.554 17.1894C152.861 17.1778 155.156 17.5106 157.347 18.1748C159.451 18.806 161.366 19.8775 162.941 21.3048C164.616 22.8597 165.914 24.7211 166.752 26.7677C167.771 29.3181 168.255 32.022 168.181 34.7375L168.196 60.3713Z" fill="#009480"/>
<path fill-rule="evenodd" clip-rule="evenodd" d="M271.907 60.3654H260.49V35.2388C260.509 33.8833 260.241 32.5373 259.701 31.2756C259.249 30.2071 258.555 29.239 257.665 28.4355C256.839 27.6931 255.849 27.1224 254.761 26.7618C253.678 26.3943 252.532 26.2079 251.376 26.2112C249.611 26.2143 247.86 26.4987 246.2 27.0517C244.484 27.6258 242.921 28.5299 241.616 29.7034V60.3654H230.191V18.2776H241.616L241.695 21.4076C242.454 20.7281 243.305 20.1412 244.228 19.6615C245.235 19.1281 246.291 18.6772 247.384 18.3138C248.466 17.9478 249.58 17.6666 250.714 17.4734C251.798 17.2838 252.9 17.1868 254.004 17.1836C256.286 17.1762 258.553 17.5216 260.711 18.2052C262.832 18.8717 264.777 19.9378 266.423 21.3351C268.172 22.867 269.53 24.735 270.4 26.8053C271.462 29.334 271.974 32.0294 271.907 34.7389V60.3654Z" fill="#009480"/>
<path d="M221.835 20.7787V19.9382C221.833 19.7249 221.738 19.5211 221.573 19.3717C221.407 19.2222 221.183 19.1393 220.951 19.1412H211.925C211.692 19.1393 211.469 19.2222 211.303 19.3717C211.137 19.5211 211.043 19.7249 211.041 19.9382V20.7497V20.9453C211.02 21.1205 210.888 21.2676 210.704 21.3195C210.521 21.3715 210.321 21.3184 210.197 21.1844C208.429 19.5615 202.582 18.0617 197.256 18.0617C184.521 17.982 174.532 25.1331 174.532 38.7977C174.532 52.7086 184.08 59.9394 196.988 59.8597C201.801 59.78 207.317 59.2366 211.041 54.7155V59.2003C211.043 59.4136 211.137 59.6174 211.303 59.7669C211.469 59.9164 211.692 59.9993 211.925 59.9973H220.927C221.16 59.9993 221.383 59.9164 221.549 59.7669C221.715 59.6174 221.809 59.4136 221.811 59.2003V20.8004L221.835 20.7787ZM197.848 50.8176C190.329 51.3537 184.072 46.782 184.072 38.7977C184.072 30.8134 190.313 26.343 197.825 26.8647C213.384 27.9442 213.4 49.6946 197.848 50.8176Z" fill="#009480"/>
<path fill-rule="evenodd" clip-rule="evenodd" d="M67.857 112.809H56.4634V87.668C56.4634 84.7023 55.6743 82.4563 54.0962 80.9299C52.6289 79.4398 50.5316 78.605 48.3442 78.6404C46.6585 78.6391 44.985 78.9038 43.3969 79.4229C41.7197 79.9933 40.1731 80.8459 38.8363 81.937C39.3334 83.8199 39.5719 85.7525 39.5464 87.6898V112.809H28.1528V87.668C28.1528 84.7023 27.3637 82.4563 25.7857 80.9299C24.3471 79.4499 22.2807 78.6148 20.1204 78.6404C18.5394 78.6086 16.9697 78.8929 15.5203 79.4736C14.0035 80.1589 12.6114 81.0559 11.3937 82.1327V112.809H0V70.7213H11.4173V73.8513C12.8863 72.5645 14.5937 71.5291 16.4593 70.7938C18.322 70.0312 20.3376 69.6339 22.377 69.6273C24.6988 69.6439 26.9902 70.1132 29.0996 71.0039C31.36 71.9379 33.3775 73.3038 35.0174 75.0106C37.1211 73.2256 39.5697 71.8175 42.237 70.859C44.8109 70.0137 47.5282 69.5966 50.2615 69.6273C52.5664 69.6193 54.8576 69.952 57.0472 70.6127C59.148 71.2496 61.0618 72.3204 62.6415 73.7426C64.314 75.2988 65.6123 77.1598 66.4525 79.2056C67.469 81.7563 67.9535 84.46 67.8807 87.1754L67.857 112.809Z" fill="#009480"/>
<path fill-rule="evenodd" clip-rule="evenodd" d="M166.69 112.805H155.272V87.6637C155.291 86.3059 155.023 84.9575 154.483 83.6933C154.032 82.6262 153.341 81.6584 152.455 80.8532C151.625 80.1122 150.633 79.5417 149.544 79.1795C148.461 78.8184 147.318 78.6345 146.167 78.6361C144.402 78.6368 142.651 78.9187 140.991 79.4693C139.262 80.0447 137.686 80.951 136.367 82.1283V112.805H124.981V70.717H136.399L136.477 73.847C137.238 73.1658 138.092 72.5788 139.018 72.1009C141.02 71.0407 143.206 70.3054 145.48 69.9273C146.565 69.7351 147.666 69.6357 148.771 69.6302C151.042 69.623 153.298 69.9659 155.446 70.6446C157.566 71.3122 159.512 72.3782 161.159 73.7745C162.91 75.3056 164.276 77.1703 165.159 79.2375C166.229 81.7767 166.742 84.4854 166.666 87.2073L166.69 112.805Z" fill="#009480"/>
<path d="M263.549 79.018H258.712C259.922 81.1804 260.547 83.5785 260.535 86.0096C260.535 87.8933 260.144 89.7597 259.383 91.5088C258.609 93.2895 257.495 94.9287 256.092 96.3486C254.604 97.8492 252.848 99.1061 250.901 100.065C248.764 101.11 246.442 101.8 244.044 102.101C242.659 102.23 241.317 102.615 240.099 103.232C239.223 103.739 238.789 104.246 238.789 104.76C238.789 105.275 239.223 105.739 240.099 106.209C241.34 106.733 242.68 107.028 244.044 107.079C249.962 107.562 254.546 108.922 257.797 111.158C260.935 113.186 262.764 116.518 262.673 120.041C262.691 121.881 262.173 123.692 261.174 125.286C260.103 126.955 258.629 128.375 256.866 129.438C254.799 130.684 252.514 131.596 250.112 132.133C247.219 132.791 244.246 133.107 241.267 133.075C238.245 133.108 235.231 132.792 232.295 132.133C229.875 131.594 227.567 130.696 225.462 129.474C223.679 128.437 222.189 127.027 221.115 125.359C220.109 123.74 219.592 121.904 219.615 120.041C219.523 117.38 220.488 114.779 222.33 112.723C224.137 110.759 227.064 109.289 231.183 108.318C230.091 107.999 229.134 107.376 228.445 106.536C227.904 105.875 227.626 105.065 227.656 104.239C227.734 103.411 228.112 102.63 228.729 102.022C229.491 101.254 230.464 100.688 231.546 100.384C230.133 99.7852 228.807 99.0257 227.6 98.1237C226.332 97.1868 225.193 96.1114 224.208 94.9213C223.189 93.6851 222.39 92.3083 221.841 90.8422C221.25 89.2992 220.954 87.6742 220.965 86.0386C220.947 83.8183 221.487 81.6242 222.543 79.6266C223.588 77.6548 225.041 75.8881 226.819 74.4244C228.66 72.92 230.783 71.7344 233.084 70.925C235.487 70.0723 238.043 69.6398 240.62 69.6498C243.077 69.6316 245.519 70.0017 247.839 70.7438H263.549V79.018ZM251.256 120.012C251.283 118.352 250.157 116.86 248.455 116.302C246.162 115.45 243.699 115.052 241.227 115.136C238.071 115.136 235.578 115.549 233.755 116.375C231.932 117.201 231.033 118.411 231.033 119.997C231.033 121.584 231.98 122.895 233.881 123.714C238.6 125.353 243.805 125.366 248.534 123.75C250.191 123.14 251.265 121.652 251.232 120.012H251.256ZM249.117 86.0096C249.125 84.9824 248.896 83.9653 248.447 83.0246C248.012 82.1163 247.399 81.2888 246.64 80.5829C245.874 79.8755 244.969 79.3076 243.973 78.9093C242.943 78.4943 241.831 78.2821 240.706 78.2862C239.597 78.2792 238.499 78.4917 237.487 78.9093C236.506 79.3136 235.616 79.8811 234.86 80.5829C234.095 81.2851 233.482 82.1135 233.053 83.0246C232.6 83.9642 232.371 84.9821 232.382 86.0096C232.375 87.0486 232.603 88.0775 233.053 89.0309C233.476 89.9559 234.089 90.7973 234.86 91.5088C235.616 92.2107 236.506 92.7781 237.487 93.1825C238.499 93.5977 239.598 93.8078 240.706 93.7983C241.83 93.8049 242.943 93.5951 243.973 93.1825C244.969 92.7841 245.874 92.2162 246.64 91.5088C247.405 90.7935 248.018 89.9531 248.447 89.0309C248.884 88.0748 249.104 87.0467 249.094 86.0096H249.117Z" fill="#009480"/>
<path d="M313.945 91.6868C313.945 92.3912 313.902 93.095 313.818 93.7952C313.739 94.5197 313.653 95.2805 313.55 96.0557H276.939C277.368 97.2737 277.967 98.4355 278.722 99.5117C279.479 100.598 280.431 101.559 281.539 102.352C282.674 103.168 283.949 103.807 285.311 104.243C286.797 104.73 288.364 104.975 289.942 104.967C292.05 104.962 294.142 104.629 296.128 103.982C298.024 103.419 299.778 102.515 301.289 101.323L308.5 107.945C305.693 109.948 302.544 111.509 299.182 112.568C296.067 113.477 292.816 113.932 289.548 113.915C286.24 113.94 282.962 113.346 279.914 112.169C277.019 111.059 274.382 109.454 272.142 107.438C269.933 105.425 268.17 103.039 266.95 100.41C264.414 94.893 264.414 88.669 266.95 83.1519C268.176 80.5173 269.953 78.1295 272.181 76.1239C274.427 74.1144 277.063 72.5096 279.953 71.3928C282.961 70.2161 286.2 69.6193 289.469 69.6394C292.648 69.6322 295.799 70.1908 298.748 71.2841C301.65 72.3396 304.312 73.8826 306.599 75.8341C311.395 79.9274 314.076 85.6965 313.976 91.7085L313.945 91.6868ZM301.967 87.6077C301.149 85.0473 299.47 82.7901 297.17 81.1594C294.941 79.559 292.187 78.7007 289.358 78.725C286.572 78.7001 283.86 79.5515 281.673 81.1377C279.4 82.7804 277.745 85.0353 276.939 87.586L301.967 87.6077Z" fill="#009480"/>
<path fill-rule="evenodd" clip-rule="evenodd" d="M354 75.0866L347.893 83.9693C346.792 82.8598 345.555 81.8704 344.208 81.0205C343.02 80.2201 341.593 79.7749 340.121 79.7453C339.29 79.7639 338.471 79.9261 337.706 80.2235C336.77 80.5727 335.93 81.107 335.244 81.7885C334.401 82.6315 333.742 83.6154 333.303 84.6866C332.735 86.0948 332.467 87.5905 332.514 89.0917V112.806H321.089V70.7177H332.506V75.2315C333.721 73.5882 335.273 72.1781 337.075 71.08C338.745 70.1104 340.686 69.607 342.661 69.6309C344.74 69.6482 346.778 70.1653 348.571 71.1307C350.589 72.1886 352.419 73.5226 354 75.0866Z" fill="#009480"/>
<path d="M119.271 73.2181V72.3849C119.269 72.1716 119.174 71.9678 119.009 71.8184C118.843 71.6689 118.619 71.586 118.387 71.5879H109.36C109.129 71.586 108.906 71.6691 108.742 71.8188C108.577 71.9685 108.485 72.1723 108.485 72.3849V73.1747V73.3703C108.464 73.5478 108.329 73.6965 108.143 73.7472C107.956 73.7979 107.755 73.7407 107.632 73.6021C105.865 71.9792 100.018 70.4794 94.6922 70.4794C81.9572 70.3997 71.968 77.5581 71.968 91.2226C71.968 105.126 81.5153 112.364 94.424 112.285C99.2371 112.205 104.752 111.654 108.485 107.141V111.618C108.485 111.831 108.577 112.035 108.742 112.184C108.906 112.334 109.129 112.417 109.36 112.415H118.355C118.588 112.417 118.811 112.334 118.977 112.185C119.143 112.035 119.237 111.831 119.239 111.618V73.2181H119.271ZM95.2919 103.257C87.7645 103.8 81.5075 99.2287 81.5075 91.2444C81.5075 83.2601 87.7487 78.7825 95.2603 79.3042C110.82 80.4199 110.836 102.156 95.2919 103.257Z" fill="#009480"/>
<path d="M217.292 73.2181V72.3849C217.287 71.9436 216.896 71.5879 216.416 71.5879H207.373C206.893 71.5879 206.502 71.9436 206.498 72.3849V73.1747V73.3703C206.474 73.5442 206.341 73.689 206.158 73.7392C205.975 73.7894 205.777 73.7357 205.653 73.6021C203.886 71.9792 198.039 70.4794 192.713 70.4794C179.978 70.3997 169.989 77.558 169.989 91.2226C169.989 105.126 179.536 112.364 192.445 112.285C197.25 112.205 202.773 111.654 206.498 107.14V111.618C206.502 112.059 206.893 112.415 207.373 112.415H216.408C216.889 112.415 217.279 112.059 217.284 111.618V73.2181H217.292ZM193.313 103.257C185.785 103.8 179.536 99.2287 179.536 91.2444C179.536 83.2601 185.778 78.7825 193.289 79.3042C208.833 80.4199 208.857 102.156 193.313 103.257Z" fill="#009480"/>
<path d="M289.97 60.4427C293.386 60.4427 296.156 57.8996 296.156 54.7624C296.156 51.6253 293.386 49.0822 289.97 49.0822C286.554 49.0822 283.784 51.6253 283.784 54.7624C283.784 57.8996 286.554 60.4427 289.97 60.4427Z" fill="#F26524"/>
<path d="M313.44 60.4379C317.968 60.4379 321.638 57.0676 321.638 52.91C321.638 48.7525 317.968 45.3822 313.44 45.3822C308.912 45.3822 305.242 48.7525 305.242 52.91C305.242 57.0676 308.912 60.4379 313.44 60.4379Z" fill="#F26524"/>
<path d="M339.711 60.4353C345.75 60.4353 350.647 55.9394 350.647 50.3934C350.647 44.8474 345.75 40.3514 339.711 40.3514C333.671 40.3514 328.775 44.8474 328.775 50.3934C328.775 55.9394 333.671 60.4353 339.711 60.4353Z" fill="#009480"/>
</svg>
