<svg width="52" height="52" viewBox="0 0 52 52" fill="none" xmlns="http://www.w3.org/2000/svg">
<g clip-path="url(#clip0_2677_229)">
<path d="M25.6715 51.8846C39.7548 51.8846 51.1715 40.4679 51.1715 26.3846C51.1715 12.3013 39.7548 0.884521 25.6715 0.884521C11.5882 0.884521 0.171387 12.3013 0.171387 26.3846C0.171387 40.4679 11.5882 51.8846 25.6715 51.8846Z" fill="#009480"/>
<g clip-path="url(#clip1_2677_229)">
<path d="M25.7683 15.9305C29.175 15.9305 29.5784 15.9455 30.9181 16.0052C32.1632 16.06 32.8356 16.2692 33.2838 16.4435C33.8765 16.6726 34.3048 16.9515 34.7481 17.3948C35.1963 17.843 35.4703 18.2664 35.6994 18.859C35.8737 19.3073 36.0829 19.9846 36.1377 21.2248C36.1974 22.5695 36.2124 22.9729 36.2124 26.3746C36.2124 29.7812 36.1974 30.1846 36.1377 31.5244C36.0829 32.7695 35.8737 33.4419 35.6994 33.8901C35.4703 34.4828 35.1914 34.9111 34.7481 35.3544C34.2999 35.8026 33.8765 36.0765 33.2838 36.3056C32.8356 36.4799 32.1583 36.6891 30.9181 36.7439C29.5734 36.8037 29.17 36.8186 25.7683 36.8186C22.3617 36.8186 21.9583 36.8037 20.6185 36.7439C19.3734 36.6891 18.701 36.4799 18.2528 36.3056C17.6601 36.0765 17.2318 35.7976 16.7885 35.3544C16.3403 34.9061 16.0664 34.4828 15.8373 33.8901C15.6629 33.4419 15.4538 32.7645 15.399 31.5244C15.3392 30.1796 15.3243 29.7762 15.3243 26.3746C15.3243 22.9679 15.3392 22.5645 15.399 21.2248C15.4538 19.9796 15.6629 19.3073 15.8373 18.859C16.0664 18.2664 16.3453 17.838 16.7885 17.3948C17.2368 16.9465 17.6601 16.6726 18.2528 16.4435C18.701 16.2692 19.3784 16.06 20.6185 16.0052C21.9583 15.9455 22.3617 15.9305 25.7683 15.9305ZM25.7683 13.6345C22.3069 13.6345 21.8736 13.6495 20.5139 13.7092C19.1592 13.769 18.2279 13.9881 17.421 14.3019C16.5793 14.6306 15.8671 15.0639 15.1599 15.7761C14.4477 16.4834 14.0144 17.1956 13.6857 18.0323C13.3719 18.8441 13.1528 19.7705 13.093 21.1251C13.0333 22.4898 13.0183 22.9231 13.0183 26.3845C13.0183 29.846 13.0333 30.2793 13.093 31.6389C13.1528 32.9936 13.3719 33.925 13.6857 34.7318C14.0144 35.5735 14.4477 36.2857 15.1599 36.9929C15.8671 37.7002 16.5793 38.1384 17.4161 38.4622C18.2279 38.7759 19.1543 38.9951 20.5089 39.0548C21.8686 39.1146 22.3019 39.1295 25.7633 39.1295C29.2248 39.1295 29.6581 39.1146 31.0177 39.0548C32.3724 38.9951 33.3038 38.7759 34.1106 38.4622C34.9473 38.1384 35.6595 37.7002 36.3668 36.9929C37.074 36.2857 37.5123 35.5735 37.836 34.7368C38.1498 33.925 38.3689 32.9986 38.4287 31.6439C38.4884 30.2842 38.5034 29.8509 38.5034 26.3895C38.5034 22.9281 38.4884 22.4948 38.4287 21.1351C38.3689 19.7804 38.1498 18.8491 37.836 18.0422C37.5222 17.1956 37.0889 16.4834 36.3767 15.7761C35.6695 15.0689 34.9573 14.6306 34.1206 14.3069C33.3087 13.9931 32.3824 13.774 31.0277 13.7142C29.663 13.6495 29.2297 13.6345 25.7683 13.6345Z" fill="white"/>
<path d="M25.7683 19.8352C22.1525 19.8352 19.219 22.7687 19.219 26.3845C19.219 30.0003 22.1525 32.9338 25.7683 32.9338C29.3841 32.9338 32.3176 30.0003 32.3176 26.3845C32.3176 22.7687 29.3841 19.8352 25.7683 19.8352ZM25.7683 30.6329C23.4225 30.6329 21.52 28.7303 21.52 26.3845C21.52 24.0387 23.4225 22.1362 25.7683 22.1362C28.1141 22.1362 30.0167 24.0387 30.0167 26.3845C30.0167 28.7303 28.1141 30.6329 25.7683 30.6329Z" fill="white"/>
<path d="M34.1056 19.5764C34.1056 20.4231 33.4183 21.1054 32.5766 21.1054C31.7299 21.1054 31.0476 20.4181 31.0476 19.5764C31.0476 18.7297 31.7349 18.0474 32.5766 18.0474C33.4183 18.0474 34.1056 18.7347 34.1056 19.5764Z" fill="white"/>
</g>
</g>
<defs>
<clipPath id="clip0_2677_229">
<rect width="51" height="51" fill="white" transform="translate(0.171387 0.884521)"/>
</clipPath>
<clipPath id="clip1_2677_229">
<rect width="25.5" height="25.5" fill="white" transform="translate(13.0183 13.6345)"/>
</clipPath>
</defs>
</svg>
