<svg width="52" height="52" viewBox="0 0 52 52" fill="none" xmlns="http://www.w3.org/2000/svg">
<path d="M25.5857 51.8845C39.669 51.8845 51.0857 40.4678 51.0857 26.3845C51.0857 12.3013 39.669 0.884521 25.5857 0.884521C11.5024 0.884521 0.0856934 12.3013 0.0856934 26.3845C0.0856934 40.4678 11.5024 51.8845 25.5857 51.8845Z" fill="#009480"/>
<g clip-path="url(#clip0_2677_226)">
<path d="M36.3116 13.6348H14.5818C13.5409 13.6348 12.6992 14.4565 12.6992 15.4726V37.292C12.6992 38.308 13.5409 39.1348 14.5818 39.1348H36.3116C37.3525 39.1348 38.1992 38.308 38.1992 37.297V15.4726C38.1992 14.4565 37.3525 13.6348 36.3116 13.6348ZM20.2646 35.3646H16.4794V23.1923H20.2646V35.3646ZM18.372 21.5338C17.1567 21.5338 16.1756 20.5526 16.1756 19.3424C16.1756 18.1321 17.1567 17.151 18.372 17.151C19.5822 17.151 20.5634 18.1321 20.5634 19.3424C20.5634 20.5477 19.5822 21.5338 18.372 21.5338ZM34.429 35.3646H30.6488V29.4478C30.6488 28.0383 30.6239 26.2204 28.6815 26.2204C26.7143 26.2204 26.4154 27.7594 26.4154 29.3481V35.3646H22.6402V23.1923H26.266V24.8558H26.3158C26.8188 23.8995 28.054 22.8885 29.8918 22.8885C33.7218 22.8885 34.429 25.4086 34.429 28.6857V35.3646Z" fill="white"/>
</g>
<defs>
<clipPath id="clip0_2677_226">
<rect width="25.5" height="25.5" fill="white" transform="translate(12.6992 13.6348)"/>
</clipPath>
</defs>
</svg>
