<svg width="50" height="50" viewBox="0 0 50 50" fill="none" xmlns="http://www.w3.org/2000/svg">
<path d="M25.5 12C20.1082 12 15.7216 16.3866 15.7216 21.7783C15.7216 28.4697 24.4723 38.293 24.8449 38.7079C25.1948 39.0977 25.8058 39.097 26.1551 38.7079C26.5277 38.293 35.2784 28.4697 35.2784 21.7783C35.2783 16.3866 30.8918 12 25.5 12ZM25.5 26.6981C22.7872 26.6981 20.5803 24.4911 20.5803 21.7783C20.5803 19.0656 22.7873 16.8586 25.5 16.8586C28.2127 16.8586 30.4196 19.0656 30.4196 21.7784C30.4196 24.4911 28.2127 26.6981 25.5 26.6981Z" fill="#F26524"/>
<circle cx="25" cy="25" r="23.75" stroke="#009480" stroke-width="2.5"/>
</svg>
