<svg width="50" height="50" viewBox="0 0 50 50" fill="none" xmlns="http://www.w3.org/2000/svg">
<g clip-path="url(#clip0_2681_282)">
<path d="M36.8196 30.8475L33.3307 27.3587C32.0847 26.1126 29.9665 26.6111 29.4681 28.2309C29.0943 29.3523 27.8483 29.9753 26.7269 29.7261C24.2349 29.1031 20.8706 25.8634 20.2476 23.2468C19.8738 22.1254 20.6214 20.8794 21.7429 20.5056C23.3627 20.0072 23.8611 17.889 22.6151 16.643L19.1262 13.1542C18.1294 12.2819 16.6342 12.2819 15.762 13.1542L13.3946 15.5216C11.0272 18.0136 13.6438 24.6174 19.5 30.4737C25.3563 36.3299 31.9601 39.0712 34.4521 36.5791L36.8196 34.2117C37.6918 33.2149 37.6918 31.7197 36.8196 30.8475Z" fill="#F26524"/>
</g>
<circle cx="25" cy="25" r="23.75" stroke="#009480" stroke-width="2.5"/>
<defs>
<clipPath id="clip0_2681_282">
<rect width="25" height="25" fill="white" transform="translate(12.5 12.5)"/>
</clipPath>
</defs>
</svg>
