<svg width="52" height="52" viewBox="0 0 52 52" fill="none" xmlns="http://www.w3.org/2000/svg">
<path d="M25.6284 51.8845C39.7117 51.8845 51.1285 40.4678 51.1285 26.3845C51.1285 12.3013 39.7117 0.884521 25.6284 0.884521C11.5452 0.884521 0.128418 12.3013 0.128418 26.3845C0.128418 40.4678 11.5452 51.8845 25.6284 51.8845Z" fill="#009480"/>
<path d="M32.6023 16.5351C31.5129 15.2914 30.9125 13.6942 30.913 12.0408H25.9883V31.8032C25.9503 32.8727 25.4988 33.8857 24.7289 34.6288C23.9589 35.372 22.9306 35.7874 21.8605 35.7876C19.5974 35.7876 17.7167 33.9389 17.7167 31.6439C17.7167 28.9026 20.3624 26.8467 23.0877 27.6914V22.6551C17.5892 21.922 12.7761 26.1932 12.7761 31.6439C12.7761 36.951 17.1749 40.7282 21.8445 40.7282C26.8489 40.7282 30.913 36.6642 30.913 31.6439V21.6192C32.9099 23.0533 35.3075 23.8228 37.7661 23.8186V18.8939C37.7661 18.8939 34.7698 19.0373 32.6023 16.5351Z" fill="#F8F8F8"/>
</svg>
