<svg width="51" height="52" viewBox="0 0 51 52" fill="none" xmlns="http://www.w3.org/2000/svg">
<path d="M25.5 51.8845C39.5833 51.8845 51 40.4678 51 26.3845C51 12.3013 39.5833 0.884521 25.5 0.884521C11.4167 0.884521 0 12.3013 0 26.3845C0 40.4678 11.4167 51.8845 25.5 51.8845Z" fill="#009480"/>
<g clip-path="url(#clip0_2677_219)">
<path d="M17.6345 15.2454C15.8577 15.2454 14.4131 16.6899 14.4131 18.4667V34.5736C14.4131 36.3504 15.8577 37.7949 17.6345 37.7949H33.7413C35.5181 37.7949 36.9627 36.3504 36.9627 34.5736V18.4667C36.9627 16.6899 35.5181 15.2454 33.7413 15.2454H17.6345ZM32.5887 19.4734L27.364 25.443L33.5098 33.5669H28.6978L24.9329 28.6392L20.6193 33.5669H18.2284L23.8155 27.1795L17.9214 19.4734H22.8541L26.2617 23.9783L30.1978 19.4734H32.5887ZM30.686 32.1374L22.1343 20.8274H20.7099L29.3572 32.1374H30.681H30.686Z" fill="white"/>
</g>
<defs>
<clipPath id="clip0_2677_219">
<rect width="22.5516" height="25.7709" fill="white" transform="translate(14.4124 13.6348)"/>
</clipPath>
</defs>
</svg>
