<svg width="52" height="52" viewBox="0 0 52 52" fill="none" xmlns="http://www.w3.org/2000/svg">
<g clip-path="url(#clip0_2677_235)">
<path d="M25.7142 51.8846C39.7975 51.8846 51.2143 40.4679 51.2143 26.3846C51.2143 12.3013 39.7975 0.884521 25.7142 0.884521C11.6309 0.884521 0.214111 12.3013 0.214111 26.3846C0.214111 40.4679 11.6309 51.8846 25.7142 51.8846Z" fill="#009480"/>
<g clip-path="url(#clip1_2677_235)">
<path d="M37.9851 20.2064C37.841 19.6639 37.5568 19.1688 37.1612 18.7706C36.7656 18.3724 36.2723 18.0851 35.7307 17.9374C33.7371 17.4014 25.7683 17.4014 25.7683 17.4014C25.7683 17.4014 17.7996 17.4014 15.8059 17.9374C15.2644 18.0851 14.7711 18.3724 14.3754 18.7706C13.9798 19.1688 13.6957 19.6639 13.5515 20.2064C13.0183 22.2087 13.0183 26.3843 13.0183 26.3843C13.0183 26.3843 13.0183 30.5599 13.5515 32.5623C13.6957 33.1048 13.9798 33.5999 14.3754 33.9981C14.7711 34.3963 15.2644 34.6836 15.8059 34.8312C17.7996 35.3673 25.7683 35.3673 25.7683 35.3673C25.7683 35.3673 33.7371 35.3673 35.7307 34.8312C36.2723 34.6836 36.7656 34.3963 37.1612 33.9981C37.5568 33.5999 37.841 33.1048 37.9851 32.5623C38.5183 30.5599 38.5183 26.3843 38.5183 26.3843C38.5183 26.3843 38.5183 22.2087 37.9851 20.2064Z" fill="white"/>
<path d="M23.1604 30.1761V22.5928L29.8252 26.3845L23.1604 30.1761Z" fill="#009480"/>
</g>
</g>
<defs>
<clipPath id="clip0_2677_235">
<rect width="51" height="51" fill="white" transform="translate(0.214111 0.884521)"/>
</clipPath>
<clipPath id="clip1_2677_235">
<rect width="25.5" height="25.5" fill="white" transform="translate(12.9929 13.6345)"/>
</clipPath>
</defs>
</svg>
